<svg xmlns="http://www.w3.org/2000/svg" width="100%" height="100%" preserveAspectRatio="xMidYMid meet" viewBox="0 0 300.00006103515625 52.01570510864258" overflow="visible"><defs id="SvgjsDefs1002"><linearGradient id="SvgjsLinearGradientoxJ2kiyxFR" gradientUnits="userSpaceOnUse" x1="-3.5527136788005e-15" y1="32.00000000000001" x2="32" y2="-3.5527136788005e-15"><stop id="SvgjsStop1010" stop-color="#50f798" offset="0.05"></stop><stop id="SvgjsStop1011" stop-color="#09bf57" offset="0.95"></stop></linearGradient></defs><g id="SvgjsG1008" transform="scale(0.6689261505529789)" opacity="1"><g id="SvgjsG1012" class="iVX8WN2rP" transform="translate(0, 0) scale(2.43)" light-content="false" non-strokable="false" fill="#ffffff"><path d="M13.244 17.144L9.6 13.714l-3.811 4 7.899 7.435L26.207 10.43l-4.23-3.556-8.733 10.27zm10.137-6.478L13.529 22.25l-4.903-4.614 1.051-1.104 3.729 3.51 8.809-10.357 1.166.981z"></path><path d="M16 0C7.163 0 0 7.163 0 16s7.163 16 16 16 16-7.163 16-16S24.837 0 16 0zm0 30C8.28 30 2 23.72 2 16S8.28 2 16 2s14 6.28 14 14-6.28 14-14 14z"></path></g><g id="SvgjsG1013" class="text" transform="translate(279.70000244140624, 58.32000106811523) scale(1)" light-content="false" fill="#ffffff"><path d="M-163.91 -38.88L-140.86 0L-131.51 -16.08L-131.51 -35.65L-139.71 -21.59L-150.14 -38.88ZM-129.61 0L-116.66 0L-116.66 -38.88L-129.61 -38.88ZM-163.94 0L-151.84 0L-151.84 -14.97L-163.94 -35.27Z M-94.81 -12.36L-94.81 0L-81.83 0L-81.83 -11.46L-95.28 -38.88L-107.99 -38.88ZM-81.01 -14.18L-68.47 -38.88L-80.92 -38.88L-87.31 -26.95Z M-51.57 -28.39L-51.57 0L-38.09 0L-38.09 -28.39ZM-61.71 -38.88L-61.71 -30.41L-27.96 -30.41L-27.96 -38.88Z M-17.01 0L-4.06 0L-4.06 -38.88L-17.01 -38.88ZM-2.01 -31.11L7.72 -31.11L7.72 -19.19L-2.01 -19.19L-2.01 -11.66L2.5 -11.66L2.04 -12.69L14.19 -14.3L14.6 -13.48L20.58 -19.45L20.58 -31.11L12.79 -38.88L-2.01 -38.88ZM21.9 0L14.6 -13.48L12.79 -11.66L2.5 -11.66L8.07 0Z M58.05 -4.25L59.69 0L72.78 0L57.28 -38.88L44.66 -38.88L55.06 -11.95L48.03 -11.95L45.33 -4.25ZM41.87 0L48.99 -21.68L43.25 -37.12L29.36 0Z M94.84 0L94.84 -38.88L89.68 -38.88L81.89 -31.11L81.89 -7.76L89.68 0ZM96.89 -31.11L105.5 -31.11L105.5 -23.29L118.45 -23.29L118.45 -31.11L110.69 -38.88L96.89 -38.88ZM96.89 0L110.69 0L118.45 -7.76L118.45 -13.45L105.5 -13.45L105.5 -7.76L96.89 -7.76Z M130.66 0L143.61 0L143.61 -38.88L130.66 -38.88ZM145.6 -5.51L168.16 -38.88L154.68 -38.85L145.6 -24.4ZM168.78 0L158.05 -20.57L150.38 -9.05L154.77 0Z"></path></g></g></svg>